<?xml version="1.0" encoding="utf-8"?>
<!-- Generator: Adobe Illustrator 19.1.0, SVG Export Plug-In . SVG Version: 6.00 Build 0)  -->
<!DOCTYPE svg PUBLIC "-//W3C//DTD SVG 1.1//EN" "http://www.w3.org/Graphics/SVG/1.1/DTD/svg11.dtd">
<svg version="1.1" id="Layer_1" xmlns="http://www.w3.org/2000/svg" xmlns:xlink="http://www.w3.org/1999/xlink" x="0px" y="0px"
	 viewBox="0 0 400 400" style="enable-background:new 0 0 400 400;" xml:space="preserve">
<g>
	<g>
		<g>
			<g>
				<path style="fill:#838487;" d="M301.3,148.1h-11.1c-4.3,0-7.8,3.5-7.8,7.8v8.2c-0.3,4.1-4.3,9-9.5,9.2h-10
					c-4.3,0-7.8,3.5-7.8,7.8v9.1c0,4.3,3.5,7.8,7.8,7.8h11c4.3,0,7.8-3.5,7.8-7.8v-8.1c0.5-4.4,4.8-9.1,9.1-9.2h10.4
					c4.3,0,7.8-3.5,7.8-7.8v-9.2C309.1,151.6,305.6,148.1,301.3,148.1z"/>
				<path style="fill:#54B948;" d="M326.5,203.2h-7.4c-5-0.3-8.6-4.8-8.7-7.1c0-0.1,0-0.5,0-0.5l0,0v-10.7c0-4.3-3.5-7.8-7.8-7.8
					h-8.8c-4.3,0-7.8,3.5-7.8,7.8v9.9c0,4.3,3.5,7.8,7.8,7.8h8l-1.4,0c4.4,0,9.7,4.2,9.7,9.1c0,0,0,0,0,0v8.9
					c-0.2,3.1-3.4,7.8-8.5,8.3h-10c-4.1,0-7.5,3.4-7.5,7.5v8.7c0,4.1,3.4,7.5,7.5,7.5h10.6c4.1,0,7.5-3.4,7.5-7.5v-7.7
					c0.3-3.9,4.2-8.2,6.9-8.5c0.1,0,0.3,0,0.5,0c0.2,0,0.3,0,0.5,0h8.8c4.1,0,7.5-3.4,7.5-7.5v-10.6
					C334,206.6,330.6,203.2,326.5,203.2z"/>
			</g>
			<circle style="fill:none;stroke:#828386;stroke-width:0.5;stroke-miterlimit:10;" cx="321.5" cy="242" r="5.2"/>
			<g>
				<path style="fill:#828386;" d="M322.4,239.4c0.2,0,0.5,0,0.7,0.1c0.2,0.1,0.4,0.2,0.5,0.3c0.1,0.1,0.2,0.3,0.3,0.5
					c0.1,0.2,0.1,0.4,0.1,0.6c0,0.3-0.1,0.6-0.2,0.8c-0.1,0.2-0.4,0.4-0.7,0.5v0c0.2,0,0.3,0.1,0.4,0.2c0.1,0.1,0.2,0.2,0.2,0.3
					c0.1,0.1,0.1,0.2,0.1,0.4c0,0.1,0,0.3,0.1,0.4c0,0.1,0,0.2,0,0.3c0,0.1,0,0.2,0,0.4c0,0.1,0,0.2,0.1,0.3c0,0.1,0.1,0.2,0.1,0.3
					h-1.2c-0.1-0.2-0.1-0.4-0.1-0.6c0-0.2,0-0.5-0.1-0.7c0-0.3-0.1-0.5-0.3-0.6s-0.4-0.2-0.7-0.2h-1.2v2.1h-1.2v-5.5H322.4z
					 M321.9,241.9c0.3,0,0.5-0.1,0.6-0.2c0.1-0.1,0.2-0.3,0.2-0.6c0-0.3-0.1-0.5-0.2-0.6c-0.1-0.1-0.3-0.2-0.6-0.2h-1.3v1.5H321.9z"
					/>
			</g>
		</g>
	</g>
	<g>
		<path style="fill:#838487;" d="M127.3,192.2c0.3,0.5,0.7,1,1.1,1.3c0.5,0.3,1,0.6,1.6,0.8c0.6,0.2,1.3,0.2,2,0.2
			c0.5,0,0.9,0,1.5-0.1c0.5-0.1,1-0.2,1.5-0.4c0.5-0.2,0.8-0.5,1.1-0.9c0.3-0.4,0.5-0.9,0.5-1.5c0-0.6-0.2-1.1-0.6-1.5
			c-0.4-0.4-0.9-0.7-1.6-1c-0.7-0.3-1.4-0.5-2.2-0.7c-0.8-0.2-1.7-0.4-2.5-0.7c-0.9-0.2-1.7-0.5-2.5-0.8c-0.8-0.3-1.6-0.7-2.2-1.2
			c-0.7-0.5-1.2-1.1-1.6-1.9c-0.4-0.8-0.6-1.7-0.6-2.7c0-1.2,0.3-2.2,0.8-3.1c0.5-0.9,1.2-1.6,2-2.2c0.8-0.6,1.8-1,2.8-1.3
			c1-0.3,2.1-0.4,3.1-0.4c1.2,0,2.4,0.1,3.5,0.4c1.1,0.3,2.1,0.7,3,1.3c0.9,0.6,1.6,1.4,2.1,2.3c0.5,0.9,0.8,2.1,0.8,3.4h-5
			c0-0.7-0.2-1.3-0.4-1.7c-0.3-0.5-0.6-0.8-1-1.1c-0.4-0.3-0.9-0.4-1.4-0.6c-0.5-0.1-1.1-0.2-1.7-0.2c-0.4,0-0.8,0-1.2,0.1
			c-0.4,0.1-0.8,0.2-1.1,0.5c-0.3,0.2-0.6,0.5-0.8,0.8c-0.2,0.3-0.3,0.7-0.3,1.2c0,0.5,0.1,0.8,0.3,1.1c0.2,0.3,0.5,0.5,1,0.8
			c0.5,0.2,1.2,0.5,2.1,0.7c0.9,0.2,2.1,0.5,3.5,0.9c0.4,0.1,1,0.2,1.8,0.5c0.8,0.2,1.5,0.6,2.3,1.1c0.8,0.5,1.4,1.2,2,2
			c0.6,0.8,0.8,1.9,0.8,3.2c0,1.1-0.2,2.1-0.6,3c-0.4,0.9-1,1.7-1.8,2.4c-0.8,0.7-1.8,1.2-3,1.6c-1.2,0.4-2.6,0.6-4.2,0.6
			c-1.3,0-2.5-0.2-3.7-0.5c-1.2-0.3-2.3-0.8-3.2-1.5c-0.9-0.7-1.7-1.5-2.2-2.6c-0.5-1-0.8-2.3-0.8-3.7h5
			C126.9,191,127.1,191.6,127.3,192.2z"/>
		<path style="fill:#838487;" d="M142.4,181.5c0.5-1.5,1.3-2.8,2.3-3.9c1-1.1,2.2-2,3.6-2.6c1.4-0.6,3-0.9,4.8-0.9
			c1.8,0,3.4,0.3,4.8,0.9c1.4,0.6,2.6,1.5,3.6,2.6c1,1.1,1.7,2.4,2.3,3.9c0.5,1.5,0.8,3.1,0.8,4.9c0,1.7-0.3,3.3-0.8,4.8
			c-0.5,1.5-1.3,2.7-2.3,3.8c-1,1.1-2.2,1.9-3.6,2.6c-1.4,0.6-3,0.9-4.8,0.9c-1.8,0-3.4-0.3-4.8-0.9c-1.4-0.6-2.6-1.5-3.6-2.6
			c-1-1.1-1.7-2.4-2.3-3.8c-0.5-1.5-0.8-3.1-0.8-4.8C141.6,184.6,141.9,183,142.4,181.5z M147.1,189.2c0.2,0.9,0.6,1.8,1.1,2.5
			c0.5,0.7,1.2,1.3,2,1.8c0.8,0.4,1.8,0.7,2.9,0.7c1.2,0,2.1-0.2,2.9-0.7c0.8-0.4,1.5-1,2-1.8c0.5-0.7,0.9-1.6,1.1-2.5
			c0.2-0.9,0.3-1.9,0.3-2.9c0-1-0.1-2-0.3-3c-0.2-1-0.6-1.8-1.1-2.6c-0.5-0.8-1.2-1.4-2-1.8c-0.8-0.4-1.8-0.7-2.9-0.7
			c-1.2,0-2.1,0.2-2.9,0.7c-0.8,0.4-1.5,1-2,1.8c-0.5,0.8-0.9,1.6-1.1,2.6c-0.2,1-0.3,1.9-0.3,3
			C146.8,187.4,146.9,188.3,147.1,189.2z"/>
		<path style="fill:#838487;" d="M183.3,196.2c-1.8,1.5-4.2,2.3-7.3,2.3c-3.2,0-5.6-0.8-7.3-2.3c-1.7-1.5-2.6-3.9-2.6-7.1v-14.5h5.1
			v14.5c0,0.6,0.1,1.3,0.2,1.9c0.1,0.6,0.3,1.1,0.7,1.6c0.3,0.5,0.8,0.8,1.5,1.1c0.6,0.3,1.5,0.4,2.5,0.4c1.8,0,3.1-0.4,3.8-1.2
			c0.7-0.8,1-2.1,1-3.8v-14.5h5.1v14.5C185.9,192.3,185,194.6,183.3,196.2z"/>
		<path style="fill:#838487;" d="M200.9,174.6c1,0,2,0.2,2.8,0.5c0.8,0.3,1.6,0.8,2.2,1.4c0.6,0.6,1.1,1.3,1.4,2
			c0.3,0.8,0.5,1.6,0.5,2.5c0,1.4-0.3,2.6-0.9,3.6c-0.6,1-1.5,1.8-2.8,2.3v0.1c0.6,0.2,1.2,0.4,1.6,0.8c0.4,0.4,0.8,0.8,1,1.3
			c0.3,0.5,0.5,1,0.6,1.6c0.1,0.6,0.2,1.2,0.2,1.8c0,0.4,0,0.8,0.1,1.3c0,0.5,0.1,1,0.1,1.5c0.1,0.5,0.1,1,0.3,1.5
			c0.1,0.5,0.3,0.9,0.5,1.2h-5.1c-0.3-0.7-0.5-1.6-0.5-2.6c-0.1-1-0.2-2-0.3-2.9c-0.2-1.2-0.5-2.1-1.1-2.7c-0.6-0.6-1.5-0.8-2.8-0.8
			h-5.1v9.1h-5.1v-23.3H200.9z M199.1,185.2c1.2,0,2.1-0.3,2.6-0.8c0.6-0.5,0.9-1.4,0.9-2.5c0-1.1-0.3-2-0.9-2.5
			c-0.6-0.5-1.5-0.8-2.6-0.8h-5.6v6.6H199.1z"/>
		<path style="fill:#838487;" d="M224.9,180.8c-0.3-0.5-0.7-0.9-1.1-1.3c-0.5-0.4-1-0.7-1.6-0.9c-0.6-0.2-1.2-0.3-1.8-0.3
			c-1.2,0-2.1,0.2-2.9,0.7c-0.8,0.4-1.5,1-2,1.8c-0.5,0.8-0.9,1.6-1.1,2.6c-0.2,1-0.3,1.9-0.3,3c0,1,0.1,1.9,0.3,2.9
			c0.2,0.9,0.6,1.8,1.1,2.5c0.5,0.7,1.2,1.3,2,1.8c0.8,0.4,1.8,0.7,2.9,0.7c1.6,0,2.8-0.5,3.7-1.4c0.9-1,1.4-2.2,1.6-3.8h5
			c-0.1,1.5-0.5,2.8-1,4c-0.5,1.2-1.3,2.2-2.2,3c-0.9,0.8-1.9,1.5-3.1,1.9c-1.2,0.4-2.5,0.7-4,0.7c-1.8,0-3.4-0.3-4.8-0.9
			c-1.4-0.6-2.6-1.5-3.6-2.6c-1-1.1-1.7-2.4-2.3-3.8c-0.5-1.5-0.8-3.1-0.8-4.8c0-1.7,0.3-3.4,0.8-4.9c0.5-1.5,1.3-2.8,2.3-3.9
			c1-1.1,2.2-2,3.6-2.6c1.4-0.6,3-0.9,4.8-0.9c1.3,0,2.5,0.2,3.6,0.6c1.1,0.4,2.2,0.9,3.1,1.6c0.9,0.7,1.7,1.6,2.2,2.6
			c0.6,1,1,2.2,1.1,3.6h-5C225.4,181.9,225.2,181.3,224.9,180.8z"/>
		<path style="fill:#838487;" d="M249.7,174.6v4.3h-12.3v5h11.3v4h-11.3v5.7h12.6v4.3h-17.7v-23.3H249.7z"/>
		<path style="fill:#54B948;" d="M70.6,203.4v23.3h-2.2v-23.3H70.6z"/>
		<path style="fill:#54B948;" d="M77.3,203.4l13.6,19.7h0.1v-19.7h2.2v23.3h-2.5L77.1,207H77v19.7h-2.2v-23.3H77.3z"/>
		<path style="fill:#54B948;" d="M113.1,203.4v1.9H105v21.4h-2.2v-21.4h-8.1v-1.9H113.1z"/>
		<path style="fill:#54B948;" d="M130.8,203.4v1.9h-13.9v8.4h13v1.9h-13v9.2h14v1.9h-16.3v-23.3H130.8z"/>
		<path style="fill:#54B948;" d="M135.6,203.4v21.4h13.1v1.9h-15.3v-23.3H135.6z"/>
		<path style="fill:#54B948;" d="M152.5,203.4v21.4h13.1v1.9h-15.3v-23.3H152.5z"/>
		<path style="fill:#54B948;" d="M169.5,203.4v23.3h-2.2v-23.3H169.5z"/>
		<path style="fill:#54B948;" d="M192.1,226.8l-0.3-4.2h-0.1c-0.4,0.8-0.9,1.5-1.5,2.1c-0.6,0.6-1.2,1.1-1.9,1.5
			c-0.7,0.4-1.4,0.7-2.2,0.8c-0.8,0.2-1.6,0.3-2.5,0.3c-1.8,0-3.4-0.3-4.8-1c-1.4-0.7-2.5-1.6-3.4-2.7c-0.9-1.1-1.6-2.4-2.1-3.9
			c-0.5-1.5-0.7-3-0.7-4.6c0-1.6,0.2-3.1,0.7-4.6c0.5-1.5,1.1-2.7,2.1-3.9c0.9-1.1,2.1-2,3.4-2.7c1.4-0.7,3-1,4.8-1
			c1.2,0,2.4,0.2,3.5,0.5c1.1,0.3,2.1,0.8,2.9,1.5c0.9,0.7,1.6,1.5,2.2,2.4c0.6,1,1,2.1,1.2,3.4h-2.2c-0.1-0.7-0.3-1.4-0.7-2
			c-0.4-0.7-0.9-1.3-1.5-1.9c-0.6-0.6-1.4-1-2.3-1.4c-0.9-0.4-1.9-0.5-3-0.5c-1.5,0-2.9,0.3-4,0.9c-1.1,0.6-2,1.4-2.7,2.3
			c-0.7,1-1.2,2.1-1.6,3.3c-0.3,1.2-0.5,2.5-0.5,3.8c0,1.3,0.2,2.5,0.5,3.7c0.3,1.2,0.9,2.3,1.6,3.3c0.7,1,1.6,1.7,2.7,2.3
			c1.1,0.6,2.4,0.9,4,0.9c1.3,0,2.4-0.2,3.4-0.6c1-0.4,1.9-1,2.6-1.8c0.7-0.8,1.2-1.7,1.6-2.7c0.3-1,0.5-2.2,0.5-3.4h-7.9v-1.9h9.9
			v11.9H192.1z"/>
		<path style="fill:#54B948;" d="M213.4,203.4v1.9h-13.9v8.4h13v1.9h-13v9.2h14v1.9h-16.3v-23.3H213.4z"/>
		<path style="fill:#54B948;" d="M218.5,203.4l13.6,19.7h0.1v-19.7h2.2v23.3h-2.5L218.3,207h-0.1v19.7H216v-23.3H218.5z"/>
		<path style="fill:#54B948;" d="M254.4,208.1c-0.4-0.7-1-1.3-1.6-1.8c-0.6-0.5-1.4-0.8-2.1-1.1c-0.8-0.3-1.6-0.4-2.4-0.4
			c-1.5,0-2.9,0.3-4,0.9c-1.1,0.6-2,1.4-2.7,2.3c-0.7,1-1.2,2.1-1.6,3.3c-0.3,1.2-0.5,2.5-0.5,3.8c0,1.3,0.2,2.5,0.5,3.7
			c0.3,1.2,0.9,2.3,1.6,3.3c0.7,1,1.6,1.7,2.7,2.3c1.1,0.6,2.4,0.9,4,0.9c1.1,0,2.1-0.2,2.9-0.6c0.9-0.4,1.6-0.9,2.3-1.6
			c0.6-0.7,1.1-1.5,1.5-2.4c0.4-0.9,0.6-1.9,0.8-2.9h2.2c-0.2,1.4-0.5,2.7-1,3.9c-0.5,1.2-1.2,2.1-2,2.9c-0.8,0.8-1.8,1.4-2.9,1.9
			c-1.1,0.4-2.4,0.7-3.7,0.7c-1.8,0-3.4-0.3-4.8-1c-1.4-0.7-2.5-1.6-3.4-2.7c-0.9-1.1-1.6-2.4-2.1-3.9c-0.5-1.5-0.7-3-0.7-4.6
			c0-1.6,0.2-3.1,0.7-4.6c0.5-1.5,1.1-2.7,2.1-3.9c0.9-1.1,2.1-2,3.4-2.7c1.4-0.7,3-1,4.8-1c1.1,0,2.2,0.2,3.2,0.5
			c1.1,0.3,2,0.8,2.9,1.5c0.9,0.6,1.6,1.4,2.2,2.4c0.6,0.9,0.9,2,1.1,3.2h-2.2C255.2,209.6,254.9,208.8,254.4,208.1z"/>
		<path style="fill:#54B948;" d="M276.8,203.4v1.9h-13.9v8.4h13v1.9h-13v9.2h14v1.9h-16.3v-23.3H276.8z"/>
	</g>
</g>
</svg>
